<?xml version="1.0" encoding="UTF-8"?><svg id="Layer_2" xmlns="http://www.w3.org/2000/svg" viewBox="0 0 32.15 30"><defs><style>.cls-1{fill:#fff;}</style></defs><g id="Layer_1-2"><g><path class="cls-1" d="M16.34,17.68c.44,0,.8-.36,.8-.8s-.36-.8-.8-.8-.8,.36-.8,.8,.36,.8,.8,.8Z"/><path class="cls-1" d="M12.32,17.14c-.89,0-1.61,.72-1.61,1.61s.72,1.61,1.61,1.61,1.61-.72,1.61-1.61-.72-1.61-1.61-1.61Zm0,2.14c-.3,0-.54-.24-.54-.54s.24-.54,.54-.54,.54,.24,.54,.54-.24,.54-.54,.54Z"/><path class="cls-1" d="M10.71,3.21h4.83c.3,0,.54-.24,.54-.54s-.24-.54-.54-.54h-4.83V1.07h7.51v1.07h-.54c-.3,0-.54,.24-.54,.54V12.32c0,1.48,.6,2.4,.63,2.45l3.74,5.39c.1,.15,.27,.23,.44,.23,.11,0,.21-.03,.31-.1,.24-.17,.3-.5,.13-.75l-3.74-5.38s-.45-.7-.45-1.85V3.21c.59,0,1.07-.48,1.07-1.07V1.07c0-.59-.48-1.07-1.07-1.07h-7.51c-.59,0-1.07,.48-1.07,1.07v1.07c0,.59,.48,1.07,1.07,1.07Z"/><path class="cls-1" d="M15.53,12.32c0-.59-.48-1.07-1.07-1.07s-1.07,.48-1.07,1.07,.48,1.07,1.07,1.07c.59,0,1.07-.48,1.07-1.07Z"/><path class="cls-1" d="M25.71,11.79c0,.59,.48,1.07,1.07,1.07s1.07-.48,1.07-1.07-.48-1.07-1.07-1.07c-.59,0-1.07,.48-1.07,1.07Z"/><path class="cls-1" d="M23.03,28.93H2.14c-.3,0-.82-.05-1-.4-.17-.32-.03-.86,.35-1.41l2.73-3.49c.73,.13,2.6,.43,4.82,.43,1.43,0,2.99-.12,4.48-.5,4.1-1.02,8.27,0,8.31,0,.29,.07,.58-.1,.65-.39,.07-.29-.1-.58-.39-.65-.18-.05-4.47-1.09-8.83,0-3.1,.77-6.68,.39-8.28,.14l6.18-7.9s.62-.97,.62-2.44V4.82c0-.3-.24-.54-.54-.54s-.54,.24-.54,.54v7.5c0,1.1-.43,1.81-.42,1.81L.63,26.48c-.64,.92-.8,1.85-.44,2.55,.19,.36,.7,.98,1.95,.98H23.03c.3,0,.54-.24,.54-.54s-.24-.54-.54-.54Z"/><path class="cls-1" d="M28.12,9.11c.44,0,.8-.36,.8-.8s-.36-.8-.8-.8-.8,.36-.8,.8,.36,.8,.8,.8Z"/><path class="cls-1" d="M31.08,2.14h-7.51c-.59,0-1.07,.48-1.07,1.07v1.07c0,.59,.48,1.07,1.07,1.07h4.83c.3,0,.54-.24,.54-.54s-.24-.54-.54-.54h-4.83v-1.07h7.51v1.07h-.54c-.3,0-.54,.24-.54,.54V26.22s0,0,0,.01c0,.02,0,.05,0,.07-.03,1.45-1.23,2.62-2.68,2.62s-2.68-1.2-2.68-2.68v-10.06c.53,.09,1.06,.12,1.53,.12,1.31,0,2.29-.24,2.35-.26,.29-.07,.46-.36,.39-.65-.07-.29-.36-.46-.65-.39-.02,0-1.77,.43-3.62,.09V6.96h-1.07V26.25c0,2.07,1.68,3.75,3.75,3.75s3.68-1.63,3.75-3.63c0-.04,.01-.09,.01-.12V5.36c.59,0,1.07-.48,1.07-1.07v-1.07c0-.59-.48-1.07-1.07-1.07Z"/></g></g></svg>