<svg xmlns="http://www.w3.org/2000/svg" width="34.648" height="34.649" viewBox="0 0 34.648 34.649">
  <g id="music_icon" transform="translate(-490.636 -221.009)">
    <path id="Path_14536" data-name="Path 14536" d="M514.707,249.9a3.6,3.6,0,0,1-1.037-.478,1.771,1.771,0,0,1-.622-2.159,1.728,1.728,0,0,1,1.971-1.007,2.632,2.632,0,0,1,1.2.513c.15.12.222.1.29-.074q.7-1.811,1.407-3.621c.064-.163.023-.248-.137-.309q-2.3-.887-4.6-1.784c-.272-.107-.305.078-.369.245q-.93,2.393-1.858,4.788-.044.11-.084.221a1.729,1.729,0,0,1-1.547,1.313,2.282,2.282,0,0,1-2.269-1.111,1.735,1.735,0,0,1,1.756-2.559,2.461,2.461,0,0,1,1.278.49c.242.19.305.09.391-.135q1.046-2.71,2.105-5.417a1.01,1.01,0,0,1,1.517-.663q2.473.962,4.946,1.922a.972.972,0,0,1,.638,1.447c-.924,2.4-1.86,4.786-2.783,7.183a1.946,1.946,0,0,1-1.246,1.194Zm3.9-8.606c.052-.215-.062-.245-.151-.28-1.531-.6-3.064-1.186-4.592-1.784-.294-.115-.317.107-.383.277s-.21.353.091.462c.339.122.672.26,1.007.389q1.763.685,3.524,1.367c.1.039.234.161.325,0A3.494,3.494,0,0,0,518.609,241.294Zm-9.984,3.681a.583.583,0,0,0-.683.464.631.631,0,0,0,.312.747,1.641,1.641,0,0,0,.783.292.669.669,0,0,0,.707-.4.576.576,0,0,0-.19-.75A1.465,1.465,0,0,0,508.625,244.975Zm6.031,2.361a.558.558,0,0,0-.629.432.628.628,0,0,0,.277.762,1.473,1.473,0,0,0,.878.3.62.62,0,0,0,.64-.4.586.586,0,0,0-.193-.75A1.511,1.511,0,0,0,514.656,247.336Z" transform="translate(5.475 5.759)" fill="#fff"/>
    <path id="Path_14537" data-name="Path 14537" d="M490.636,230.978A2.254,2.254,0,0,1,493,229.6c.278.007.222-.139.187-.3q-.422-1.945-.846-3.894c-.135-.626-.273-1.253-.407-1.881a.957.957,0,0,1,.835-1.309q2.652-.594,5.308-1.167a.972.972,0,0,1,1.269.79c.572,2.582,1.144,5.165,1.685,7.754a1.9,1.9,0,0,1-1.874,2.208,1.821,1.821,0,0,1-2.072-1.136,1.678,1.678,0,0,1,.788-2.111,2.727,2.727,0,0,1,1.423-.363c.245.005.315-.058.256-.315q-.408-1.793-.78-3.6c-.055-.265-.162-.313-.416-.256q-2.307.522-4.618,1.011c-.286.06-.325.181-.266.447.387,1.725.752,3.453,1.132,5.18a1.9,1.9,0,0,1-1.727,2.506,1.854,1.854,0,0,1-2.037-.851c-.082-.146-.138-.307-.207-.46Zm2.626-6.964c.087-.012.11-.013.132-.017q2.421-.528,4.844-1.053c.357-.078.147-.313.128-.478s-.032-.365-.324-.3c-.81.19-1.625.356-2.439.533-.779.171-1.558.347-2.338.514-.171.037-.286.118-.217.3S493.028,223.961,493.262,224.014Zm-.727,8.1a1.251,1.251,0,0,0,.732-.206.635.635,0,0,0,.3-.782.619.619,0,0,0-.632-.459,1.749,1.749,0,0,0-.691.138c-.426.155-.594.395-.533.742C491.786,231.939,492.029,232.117,492.535,232.11Zm7.424-2.144c.005-.359-.154-.6-.454-.652a1.566,1.566,0,0,0-1.131.214.63.63,0,0,0-.218.854c.154.3.491.408.978.316.518-.1.79-.32.822-.665C499.958,230.012,499.96,229.989,499.96,229.966Z" transform="translate(0 0.002)" fill="#fff"/>
    <path id="Path_14538" data-name="Path 14538" d="M490.636,240.418a10.265,10.265,0,0,1,.7-2.425,7.5,7.5,0,0,1,5.521-4.337,7.568,7.568,0,0,0,4.031-2.116c.31-.32.612-.339.857-.094s.2.551-.094.861a8.329,8.329,0,0,1-4.453,2.386,6.386,6.386,0,0,0-5.136,4.465,8.075,8.075,0,0,0,.406,5.895A10.152,10.152,0,0,0,497,249.986a8.916,8.916,0,0,0,4.433,1.147,6.925,6.925,0,0,0,3.859-1.159c.46-.308.775-.3.976.012s.07.6-.381.9a7.882,7.882,0,0,1-3.358,1.25,1.718,1.718,0,0,0-.2.046H500.3a11.715,11.715,0,0,1-3.5-1.08,11.319,11.319,0,0,1-5.579-6.2,12.47,12.47,0,0,1-.593-2.453Z" transform="translate(0 3.476)" fill="#fff"/>
    <path id="Path_14539" data-name="Path 14539" d="M512.222,239.188a6.616,6.616,0,0,0-.917-2.74c-.074-.135-.147-.159-.256-.043-.039.04-.079.079-.119.119q-2.425,2.425-4.855,4.851a.793.793,0,0,0-.262.588,3.931,3.931,0,0,1-7.85.264,3.96,3.96,0,0,1,3.313-4.169.9.9,0,0,1,.233-.033c.593.087.941-.278,1.313-.656,1.478-1.5,2.974-2.983,4.464-4.474.282-.282.286-.29-.074-.48a6.44,6.44,0,0,0-3.187-.877,3.573,3.573,0,0,0-2.6,1.2,9.262,9.262,0,0,0-.833,1.063.545.545,0,0,1-.74.187.527.527,0,0,1-.159-.767,5.261,5.261,0,0,1,3.622-2.694,6.41,6.41,0,0,1,3.594.526,7.678,7.678,0,0,1,1.169.606.336.336,0,0,0,.5-.047q2.226-2.243,4.466-4.473c.071-.071.175-.138.157-.248a1.054,1.054,0,0,1,.552-1.045c.294-.218.277-.384.007-.589a1.318,1.318,0,0,1-.256-.269.53.53,0,0,1,.023-.735.519.519,0,0,1,.734-.011,4.5,4.5,0,0,1,.435.426c.126.139.241.147.368.012.008-.008.017-.013.027-.021.21-.187.527-.34.6-.57.082-.256-.3-.392-.458-.6a.555.555,0,0,1-.012-.791.542.542,0,0,1,.788.037,2.574,2.574,0,0,1,.356.359c.17.224.317.187.492.012a3.843,3.843,0,0,1,.455-.4c.185-.135.146-.242,0-.372a1.73,1.73,0,0,1-.252-.272.493.493,0,0,1,.034-.679.512.512,0,0,1,.677-.08.97.97,0,0,1,.186.146c.387.355.385.355.792-.011.642-.577,1.047-.568,1.658.041q.994.99,1.982,1.985a.964.964,0,0,1,.045,1.559c-.037.043-.078.083-.115.124-.307.344-.305.344.008.671a1.332,1.332,0,0,1,.175.2.534.534,0,0,1-.77.728c-.167-.115-.261-.415-.487-.337-.169.056-.282.278-.418.43-.337.373-.336.373.021.732a3.623,3.623,0,0,1,.28.293.533.533,0,0,1-.021.736.5.5,0,0,1-.705.033,3.173,3.173,0,0,1-.439-.419c-.145-.167-.253-.157-.363.024a.134.134,0,0,1-.023.025c-.179.215-.482.391-.511.653s.323.4.487.6a.543.543,0,0,1,.029.763.553.553,0,0,1-.79.007c-.193-.149-.316-.482-.553-.438-.19.035-.333.312-.5.481a.837.837,0,0,1-.724.29.439.439,0,0,0-.333.122.51.51,0,0,1-.683-.021.469.469,0,0,1-.115-.638c.106-.175.016-.266-.094-.375-.56-.555-1.123-1.108-1.669-1.676-.177-.183-.282-.178-.458,0-.732.751-1.479,1.487-2.219,2.227q-3.885,3.885-7.772,7.766c-.2.2-.265.288.053.448a3.513,3.513,0,0,1,1.614,1.626c.151.313.24.238.43.047q4.212-4.226,8.436-8.439a2.5,2.5,0,0,1,.325-.293.525.525,0,0,1,.743.7,1.671,1.671,0,0,1-.258.309c-.93.934-1.859,1.87-2.8,2.795a.352.352,0,0,0-.075.515,7.85,7.85,0,0,1,1.15,3.289,4.963,4.963,0,0,1-1.577,4.243,9.763,9.763,0,0,1-1.65,1.17,7.079,7.079,0,0,0-3.293,4.595,9.02,9.02,0,0,1-1.317,3.3,1.468,1.468,0,0,1-.236.284.487.487,0,0,1-.624.053.515.515,0,0,1-.218-.592.585.585,0,0,1,.094-.215,9.38,9.38,0,0,0,1.309-3.341,8.085,8.085,0,0,1,3.614-4.952,10.727,10.727,0,0,0,1.527-1.055A4.067,4.067,0,0,0,512.222,239.188Zm-10.321-.079a2.824,2.824,0,1,0,2.809,2.852A2.807,2.807,0,0,0,501.9,239.109Zm19.7-14.83a1.3,1.3,0,0,0-.12-.17c-.588-.592-1.179-1.178-1.765-1.772-.141-.143-.241-.1-.369.016q-2.381,2.1-4.769,4.2c-.161.142-.159.236-.013.38q1.164,1.154,2.318,2.318c.139.142.234.161.38-.005q2.09-2.391,4.195-4.772C521.511,224.415,521.552,224.35,521.6,224.279Z" transform="translate(2.474)" fill="#fff"/>
    <path id="Path_14540" data-name="Path 14540" d="M495.133,237.537a1.906,1.906,0,0,1,1.431.574c1.7,1.692,3.4,3.382,5.083,5.09a1.789,1.789,0,1,1-2.52,2.539q-2.588-2.546-5.133-5.136a1.69,1.69,0,0,1-.382-1.992A1.725,1.725,0,0,1,495.133,237.537Zm5.967,6.951c.024-.272-.165-.455-.349-.64l-4.829-4.828c-.427-.427-.867-.493-1.174-.177s-.232.741.2,1.175q2.389,2.391,4.781,4.78a2.1,2.1,0,0,0,.331.288.647.647,0,0,0,.676.025A.633.633,0,0,0,501.1,244.488Z" transform="translate(0.949 5.594)" fill="#fff"/>
    <path id="Path_14541" data-name="Path 14541" d="M505.675,230.812a.575.575,0,0,1,.419.2c.32.313.641.626.95.952a.558.558,0,0,1,.049.834.54.54,0,0,1-.807-.055c-.357-.339-.7-.695-1.036-1.056a.5.5,0,0,1-.068-.6A.5.5,0,0,1,505.675,230.812Z" transform="translate(4.9 3.318)" fill="#fff"/>
    <path id="Path_14542" data-name="Path 14542" d="M506.759,229.685a.659.659,0,0,1,.447.207c.325.325.656.644.973.977a.552.552,0,0,1,.036.808.517.517,0,0,1-.779-.032c-.359-.34-.7-.692-1.044-1.049a.506.506,0,0,1-.11-.59A.542.542,0,0,1,506.759,229.685Z" transform="translate(5.278 2.936)" fill="#fff"/>
    <path id="Path_14543" data-name="Path 14543" d="M510.632,229.05a.56.56,0,0,1-.292.478.47.47,0,0,1-.568-.048c-.406-.385-.806-.779-1.184-1.19a.457.457,0,0,1,.023-.645.441.441,0,0,1,.6-.143,6.09,6.09,0,0,1,1.354,1.338A.641.641,0,0,1,510.632,229.05Z" transform="translate(6.034 2.174)" fill="#fff"/>
    <path id="Path_14544" data-name="Path 14544" d="M509.5,230.149a.518.518,0,0,1-.767.494,5.791,5.791,0,0,1-1.3-1.3.521.521,0,0,1,.7-.708,8.1,8.1,0,0,1,1.306,1.3A.5.5,0,0,1,509.5,230.149Z" transform="translate(5.654 2.554)" fill="#fff"/>
    <path id="Path_14545" data-name="Path 14545" d="M504.577,231.928a.486.486,0,0,1,.335.162c.353.347.709.692,1.051,1.052a.512.512,0,0,1,.033.755.529.529,0,0,1-.784,0c-.363-.337-.708-.695-1.052-1.052a.539.539,0,0,1,.418-.921Z" transform="translate(4.522 3.695)" fill="#fff"/>
    <path id="Path_14546" data-name="Path 14546" d="M513.642,224.537a.523.523,0,0,1,.531.534.543.543,0,0,1-.507.53.563.563,0,0,1-.557-.522A.547.547,0,0,1,513.642,224.537Z" transform="translate(7.606 1.194)" fill="#fff"/>
    <path id="Path_14547" data-name="Path 14547" d="M512.129,225.313a.537.537,0,0,1-.549.522.519.519,0,0,1-.506-.525.537.537,0,0,1,.526-.543A.55.55,0,0,1,512.129,225.313Z" transform="translate(6.917 1.272)" fill="#fff"/>
    <path id="Path_14548" data-name="Path 14548" d="M513.264,224.151a.538.538,0,0,1-.526.543.557.557,0,0,1-.538-.538.541.541,0,0,1,.517-.518A.512.512,0,0,1,513.264,224.151Z" transform="translate(7.298 0.89)" fill="#fff"/>
    <path id="Path_14549" data-name="Path 14549" d="M513.861,222.491a.553.553,0,0,1,.541.534.528.528,0,0,1-.535.529.508.508,0,0,1-.515-.509A.534.534,0,0,1,513.861,222.491Z" transform="translate(7.688 0.502)" fill="#fff"/>
    <path id="Path_14550" data-name="Path 14550" d="M515.313,223.931a.522.522,0,0,1-.545.515.509.509,0,0,1-.511-.545.524.524,0,0,1,.523-.506A.539.539,0,0,1,515.313,223.931Z" transform="translate(7.994 0.808)" fill="#fff"/>
    <path id="Path_14551" data-name="Path 14551" d="M512.509,225.671a.549.549,0,0,1,.529.545.525.525,0,0,1-.551.51.512.512,0,0,1-.5-.553A.526.526,0,0,1,512.509,225.671Z" transform="translate(7.225 1.578)" fill="#fff"/>
  </g>
</svg>
